<?xml version="1.0" encoding="UTF-8"?>
<!DOCTYPE svg PUBLIC "-//W3C//DTD SVG 1.1//EN" "http://www.w3.org/Graphics/SVG/1.1/DTD/svg11.dtd">
<!-- Creator: CorelDRAW (Версия для OEM) -->
<svg xmlns="http://www.w3.org/2000/svg" xml:space="preserve" width="182.135mm" height="182.135mm" version="1.1" style="shape-rendering:geometricPrecision; text-rendering:geometricPrecision; image-rendering:optimizeQuality; fill-rule:evenodd; clip-rule:evenodd"
viewBox="0 0 18213.54 18213.54"
 xmlns:xlink="http://www.w3.org/1999/xlink"
 xmlns:xodm="http://www.corel.com/coreldraw/odm/2003">
 <defs>
  <style type="text/css">
   <![CDATA[
    .fil0 {fill:#FEFEFE;fill-rule:nonzero}
   ]]>
  </style>
 </defs>
 <g id="Слой_x0020_1">
  <metadata id="CorelCorpID_0Corel-Layer"/>
  <path class="fil0" d="M14411.98 0.52l-10624.67 0c-2095.27,0 -3794.44,1699.17 -3794.44,3794.44l0 10624.67c0,2095.27 1699.17,3794.44 3794.44,3794.44l10624.67 0c2096.13,0 3794.44,-1699.17 3794.44,-3794.44l0 -10624.67c0,-2095.27 -1698.31,-3794.44 -3794.44,-3794.44zm-8347.83 14419.11l-2276.84 0 0 -8347.83 2276.84 0 0 8347.83zm-1138.42 -9310.14c-733.13,0 -1328.01,-599.47 -1328.01,-1338.62 0,-739.16 594.88,-1338.63 1328.01,-1338.63 733.13,0 1328.01,599.47 1328.01,1338.63 0,739.15 -594.3,1338.62 -1328.01,1338.62zm10245.19 9310.14l-2276.83 0 0 -4252.79c0,-2555.92 -3035.5,-2362.32 -3035.5,0l0 4252.79 -2276.84 0 0 -8347.83 2276.84 0 0 1339.48c1059.54,-1962.47 5312.33,-2107.32 5312.33,1879.01l0 5129.34z"/>
 </g>
</svg>
